<svg xmlns="http://www.w3.org/2000/svg" width="36.435" height="22.755" viewBox="0 0 36.435 22.755">
  <g id="Group_562" data-name="Group 562" transform="translate(-3887.219 -1261.026)">
    <path id="Path_372" data-name="Path 372" d="M3887.219,1263.483v17.841a2.465,2.465,0,0,0,2.472,2.457h31.491a2.465,2.465,0,0,0,2.472-2.457v-17.841a2.465,2.465,0,0,0-2.472-2.457h-31.491A2.465,2.465,0,0,0,3887.219,1263.483Z" fill="#31978c"/>
    <path id="Path_373" data-name="Path 373" d="M3915.754,1263.163h-20.635a5.733,5.733,0,0,1-5.75,5.715v7.051a5.733,5.733,0,0,1,5.75,5.715h20.635a5.733,5.733,0,0,1,5.75-5.715v-7.051A5.733,5.733,0,0,1,3915.754,1263.163Z" fill="#44c4a1"/>
    <ellipse id="Ellipse_84" data-name="Ellipse 84" cx="5.993" cy="5.957" rx="5.993" ry="5.957" transform="translate(3899.443 1266.446)" fill="#31978c"/>
    <path id="Path_374" data-name="Path 374" d="M3905.088,1274.741v-2.073a2.747,2.747,0,0,1-1.431-.838,2.1,2.1,0,0,1-.455-1.363,1.924,1.924,0,0,1,.515-1.363,2.081,2.081,0,0,1,1.371-.635v-.49h.722v.49a2.14,2.14,0,0,1,1.259.536,2.062,2.062,0,0,1,.6,1.185l-1.259.163a1,1,0,0,0-.6-.791v1.934a3.221,3.221,0,0,1,1.627.833,1.963,1.963,0,0,1,.433,1.314,2.191,2.191,0,0,1-.545,1.508,2.4,2.4,0,0,1-1.515.752v.925h-.722v-.9a2.307,2.307,0,0,1-1.4-.638,2.613,2.613,0,0,1-.687-1.509l1.3-.138a1.638,1.638,0,0,0,.3.682A1.358,1.358,0,0,0,3905.088,1274.741Zm0-5.272a.934.934,0,0,0-.468.337.865.865,0,0,0-.174.524.827.827,0,0,0,.159.487,1.112,1.112,0,0,0,.483.364Zm.722,5.341a1.013,1.013,0,0,0,.607-.344.963.963,0,0,0,.234-.645.876.876,0,0,0-.2-.572,1.268,1.268,0,0,0-.644-.368Z" fill="#44c4a1"/>
  </g>
</svg>
