<?xml version="1.0" encoding="UTF-8" standalone="no"?><!DOCTYPE svg PUBLIC "-//W3C//DTD SVG 1.1//EN" "http://www.w3.org/Graphics/SVG/1.1/DTD/svg11.dtd"><svg width="100%" height="100%" viewBox="0 0 22 19" version="1.1" xmlns="http://www.w3.org/2000/svg" xmlns:xlink="http://www.w3.org/1999/xlink" xml:space="preserve" xmlns:serif="http://www.serif.com/" style="fill-rule:evenodd;clip-rule:evenodd;stroke-linejoin:round;stroke-miterlimit:2;"><g><path d="M17.044,13l-9.088,0c-1.02,0 -1.862,-0.786 -1.949,-1.785l-2.752,-9.215l-2.255,0c-0.552,0 -1,-0.447 -1,-1c0,-0.553 0.448,-1 1,-1l3,0c0.442,0 0.831,0.29 0.958,0.714l3,10.044c0.027,0.093 0.042,0.189 0.042,0.286l9.044,-0.044c0,-0.093 -0.031,-0.141 -0.006,-0.229l1.639,-5.771l-7.677,0c-0.552,0 -1,-0.447 -1,-1c0,-0.553 0.448,-1 1,-1l9,0c0.314,0 0.609,0.147 0.798,0.397c0.188,0.25 0.25,0.575 0.164,0.876l-1.969,6.934c-0.083,1.003 -0.925,1.793 -1.949,1.793" style="fill:#d6b048;fill-rule:nonzero;"/><path d="M5,17c0,-1.104 0.896,-2 2,-2c1.104,0 2,0.896 2,2c0,1.104 -0.896,2 -2,2c-1.104,0 -2,-0.896 -2,-2" style="fill:#d6b048;fill-rule:nonzero;"/><path d="M16,17c0,-1.104 0.896,-2 2,-2c1.104,0 2,0.896 2,2c0,1.104 -0.896,2 -2,2c-1.104,0 -2,-0.896 -2,-2" style="fill:#d6b048;fill-rule:nonzero;"/></g></svg>