<svg xmlns="http://www.w3.org/2000/svg" width="36.747" height="30.904" viewBox="0 0 36.747 30.904">
  <g id="Group_686" data-name="Group 686" transform="translate(-171.752 -718.176)">
    <path id="Union_1" data-name="Union 1" d="M-3431.167,1433a1,1,0,0,1-1-1v-1.833H-3434a1,1,0,0,1-1-1v-.334a1,1,0,0,1,1-1h1.833V1426a1,1,0,0,1,1-1h.334a1,1,0,0,1,1,1v1.833H-3428a1,1,0,0,1,1,1v.334a1,1,0,0,1-1,1h-1.833V1432a1,1,0,0,1-1,1Z" transform="translate(3635.5 -699)" fill="#fff"/>
    <g id="Group_678" data-name="Group 678" transform="translate(-216 701)">
      <path id="Path_421" data-name="Path 421" d="M185.176,324.459c2.395,2.387,3.707,1.429,7.5,4.979a.609.609,0,0,1,.171.6c-.389,1.471.372,3.559,2.051,5.232,2.049,2.041,4.712,2.716,6.109,1.6a1.275,1.275,0,0,0,1.3.81c.722-.141,1.429-.565,1.342-1.312-.068-.581-1.533.01-1.711-.385-.05-.109-.107-.214-.163-.321.4-1.472-.365-3.566-2.048-5.243s-3.784-2.432-5.253-2.028a.608.608,0,0,1-.59-.157l-21.468-21.388c.006,3.149,1.965,6.861,4.615,9.5l8.14,8.11m9.647,5.9c.781-.784,2.53-.308,3.907,1.064s1.859,3.119,1.078,3.9-2.53.308-3.907-1.063-1.859-3.119-1.078-3.9m-9.053-7.761a1.141,1.141,0,1,1,.161,1.417,1.021,1.021,0,0,1-.161-1.417" transform="translate(216.478 -289.619)" fill="#fff"/>
      <g id="Group_676" data-name="Group 676" transform="translate(387.752 17.176)">
        <path id="Path_422" data-name="Path 422" d="M177.982,339.446c1.649-1.655,2.405-3.712,2.048-5.177a.724.724,0,0,1,.2-.706,17.652,17.652,0,0,1,5.571-3.547,8.876,8.876,0,0,1-1.261-1.054l-1.073-1.069-4.454,4.47a.727.727,0,0,1-.693.187c-1.468-.362-3.53.4-5.186,2.062-2.135,2.143-2.781,4.962-1.441,6.3s4.157.679,6.292-1.464m-3.845-3.83c1.372-1.377,3.119-1.86,3.9-1.078s.308,2.53-1.063,3.907-3.119,1.859-3.9,1.078-.308-2.53,1.063-3.907" transform="translate(-170.992 -310.941)" fill="#fff"/>
        <path id="Path_423" data-name="Path 423" d="M199.612,316.3c2.64-2.65,4.585-6.37,4.58-9.518l-13.725,13.776,2.461,2.452,6.685-6.71" transform="translate(-174.828 -306.783)" fill="#fff"/>
      </g>
    </g>
  </g>
</svg>
