<svg xmlns="http://www.w3.org/2000/svg" width="36.734" height="22.1" viewBox="0 0 36.734 22.1">
  <g id="Group_559" data-name="Group 559" transform="translate(-3886.862 -1201.364)">
    <path id="SVGCleanerId_0" data-name="SVGCleanerId 0" d="M3923.6,1222.161a1.215,1.215,0,0,1-1.244,1.244h-34.246a1.215,1.215,0,0,1-1.244-1.244v-19.553a1.215,1.215,0,0,1,1.244-1.244h34.246a1.215,1.215,0,0,1,1.244,1.244v19.553Z" fill="#12db55"/>
    <g id="Group_556" data-name="Group 556">
      <path id="SVGCleanerId_0-2" data-name="SVGCleanerId 0" d="M3923.6,1222.161a1.215,1.215,0,0,1-1.244,1.244h-34.246a1.215,1.215,0,0,1-1.244-1.244v-19.553a1.215,1.215,0,0,1,1.244-1.244h34.246a1.215,1.215,0,0,1,1.244,1.244v19.553Z" fill="#12db55"/>
    </g>
    <path id="Path_355" data-name="Path 355" d="M3886.862,1202.608a1.215,1.215,0,0,1,1.244-1.244h34.246a1.215,1.215,0,0,1,1.244,1.244v19.612a1.215,1.215,0,0,1-1.244,1.244" fill="#0ac945"/>
    <rect id="Rectangle_259" data-name="Rectangle 259" width="36.734" height="7.169" transform="translate(3886.862 1202.845)" fill="#334449"/>
    <path id="Path_356" data-name="Path 356" d="M3899.482,1210.015H3923.6v-7.169h-36.32Z"/>
    <path id="Path_357" data-name="Path 357" d="M3923.6,1222.161a1.215,1.215,0,0,1-1.244,1.244h-34.246a1.215,1.215,0,0,1-1.244-1.244" fill="#0cc69a"/>
    <path id="Path_358" data-name="Path 358" d="M3922.352,1223.405a1.215,1.215,0,0,0,1.244-1.244h-3.318Z" fill="#0baf84"/>
    <g id="Group_557" data-name="Group 557">
      <path id="Path_359" data-name="Path 359" d="M3900.015,1213.629a.4.4,0,0,1-.414.414h-8.829a.4.4,0,0,1-.414-.414h0a.4.4,0,0,1,.414-.415h8.829a.4.4,0,0,1,.414.415Z" fill="#d4f9ed"/>
      <path id="Path_360" data-name="Path 360" d="M3900.015,1215.762a.4.4,0,0,1-.414.414h-8.829a.4.4,0,0,1-.414-.414h0a.5.5,0,0,1,.414-.415h8.829a.4.4,0,0,1,.414.415Z" fill="#d4f9ed"/>
      <path id="Path_361" data-name="Path 361" d="M3898.3,1217.9a.4.4,0,0,1-.415.414h-7.11a.4.4,0,0,1-.355-.414h0a.405.405,0,0,1,.415-.415h7.11a.509.509,0,0,1,.355.415Z" fill="#d4f9ed"/>
    </g>
    <circle id="Ellipse_81" data-name="Ellipse 81" cx="4.444" cy="4.444" r="4.444" transform="translate(3909.08 1211.851)" fill="#ffbc00"/>
    <path id="Path_362" data-name="Path 362" d="M3913.524,1211.851a4.523,4.523,0,0,0-4.444,3.792l7.169,4.207a4.41,4.41,0,0,0,1.719-3.555A4.366,4.366,0,0,0,3913.524,1211.851Z" fill="#fa0"/>
    <path id="Path_363" data-name="Path 363" d="M3913.524,1211.851a4.444,4.444,0,1,1,0,8.888" fill="#f7b208"/>
    <g id="Group_558" data-name="Group 558">
      <circle id="Ellipse_82" data-name="Ellipse 82" cx="4.444" cy="4.444" r="4.444" transform="translate(3912.635 1211.851)" fill="#f20a41"/>
      <circle id="Ellipse_83" data-name="Ellipse 83" cx="4.444" cy="4.444" r="4.444" transform="translate(3912.635 1211.851)" fill="#f20a41"/>
    </g>
    <path id="Path_364" data-name="Path 364" d="M3917.079,1220.8a4.443,4.443,0,1,1,0-8.887" fill="#e00040"/>
    <path id="Path_365" data-name="Path 365" d="M3915.3,1212.207a4.467,4.467,0,1,0,2.667,4.088A4.367,4.367,0,0,0,3915.3,1212.207Z" fill="#f97803"/>
    <path id="Path_366" data-name="Path 366" d="M3915.3,1220.383a4.467,4.467,0,0,0,0-8.176" fill="#f76806"/>
  </g>
</svg>
