<svg xmlns="http://www.w3.org/2000/svg" width="12" height="11.572" viewBox="0 0 12 11.572">
  <g id="Group_442" data-name="Group 442" transform="translate(-4129.375 -1507.217)">
    <g id="Group_441" data-name="Group 441">
      <g id="Group_440" data-name="Group 440">
        <g id="Group_439" data-name="Group 439">
          <path id="Path_279" data-name="Path 279" d="M4131.037,1511.886l1.157.318a.2.2,0,1,0,.106-.386l-1.157-.317a.2.2,0,1,0-.106.385Z" fill="gray"/>
          <path id="Path_280" data-name="Path 280" d="M4132.966,1512.416l.385.106a.25.25,0,0,0,.054.007.2.2,0,0,0,.053-.393l-.386-.106a.2.2,0,0,0-.106.386Z" fill="gray"/>
          <path id="Path_281" data-name="Path 281" d="M4138.375,1515.989a.8.8,0,1,0,.8.8A.8.8,0,0,0,4138.375,1515.989Zm0,1.2a.4.4,0,1,1,.4-.4A.4.4,0,0,1,4138.375,1517.189Z" fill="gray"/>
          <path id="Path_282" data-name="Path 282" d="M4140.934,1509.833l-9.45-2.594a.6.6,0,0,0-.738.419l-1.324,4.822a1.044,1.044,0,0,1-.047.709v5a.6.6,0,0,0,.6.6h10a.6.6,0,0,0,.6-.6v-4.783l.619-2.255h0v0l.159-.577A.6.6,0,0,0,4140.934,1509.833Zm-9.8-2.069a.2.2,0,0,1,.246-.14l9.45,2.595a.2.2,0,0,1,.14.246l-.106.386-9.836-2.7Zm9.412,4.244-9.836-2.7.212-.771,9.836,2.7Zm-9.942-2.315,9.836,2.7-.089.326a.6.6,0,0,0-.374-.131h-10a.571.571,0,0,0-.172.026.136.136,0,0,1,0-.029Zm9.573,3.9h-10.4v-.4a.2.2,0,0,1,.057-.139l.006-.006a.2.2,0,0,1,.137-.055h10a.2.2,0,0,1,.2.2v.4Zm-10.4.4h10.4v.8h-10.4Zm10.2,4.4h-10a.2.2,0,0,1-.2-.2v-3h10.4v3A.2.2,0,0,1,4139.975,1518.389Z" fill="gray"/>
          <path id="Path_283" data-name="Path 283" d="M4131.575,1516.189a.2.2,0,0,0-.2-.2h-.8a.2.2,0,1,0,0,.4h.8A.2.2,0,0,0,4131.575,1516.189Z" fill="gray"/>
          <path id="Path_284" data-name="Path 284" d="M4132.175,1516.389h.8a.2.2,0,0,0,0-.4h-.8a.2.2,0,0,0,0,.4Z" fill="gray"/>
          <path id="Path_285" data-name="Path 285" d="M4133.775,1516.989h-.8a.2.2,0,1,0,0,.4h.8a.2.2,0,1,0,0-.4Z" fill="gray"/>
          <path id="Path_286" data-name="Path 286" d="M4135.375,1516.989h-.8a.2.2,0,1,0,0,.4h.8a.2.2,0,1,0,0-.4Z" fill="gray"/>
          <path id="Path_287" data-name="Path 287" d="M4132.175,1516.989h-.8a.2.2,0,1,0,0,.4h.8a.2.2,0,1,0,0-.4Z" fill="gray"/>
          <path id="Path_288" data-name="Path 288" d="M4133.775,1516.389h.8a.2.2,0,0,0,0-.4h-.8a.2.2,0,0,0,0,.4Z" fill="gray"/>
        </g>
      </g>
    </g>
  </g>
</svg>
