<svg xmlns="http://www.w3.org/2000/svg" width="54" height="24.59" viewBox="0 0 54 24.59">
  <g id="Group_550" data-name="Group 550" transform="translate(-3869.615 -1141.076)">
    <rect id="Rectangle_255" data-name="Rectangle 255" width="54" height="24.59" rx="3.441" transform="translate(3869.615 1141.076)" fill="#f1f1f1"/>
    <g id="Group_549" data-name="Group 549">
      <path id="Path_334" data-name="Path 334" d="M3908.185,1150.982a10.379,10.379,0,0,0-2.281.369l-.185,1.418a8.067,8.067,0,0,1,1.911-.431c.74,0,1.171.123,1.048.8-2.219,0-3.7.431-4.006,1.91-.432,2.466,2.28,2.527,3.328,1.418l-.123.678h1.972l.863-4.006C3911.02,1151.475,3909.541,1150.92,3908.185,1150.982Zm.123,4.129c-.123.493-.555.678-1.048.74-.431,0-.8-.247-.554-.74.246-.37.8-.37,1.232-.37h.493C3908.37,1154.68,3908.308,1154.926,3908.308,1155.111Z" fill="#32a6ce"/>
      <path id="Path_335" data-name="Path 335" d="M3905.719,1152.769a8.067,8.067,0,0,1,1.911-.431c.74,0,1.171.123,1.048.8-2.219,0-3.7.431-4.006,1.91-.432,2.466,2.28,2.527,3.328,1.418l-.123.678h1.972l.863-4.006c.37-1.664-1.171-2.1-2.527-2.1m.123,4.068c-.123.493-.555.678-1.048.74-.431,0-.8-.247-.554-.74.246-.37.8-.37,1.232-.37h.493C3908.37,1154.68,3908.308,1154.926,3908.308,1155.111Z" fill="#1a80ad"/>
      <path id="Path_336" data-name="Path 336" d="M3912.376,1149.132l-1.6,8.013h1.972l1.664-8.013Z" fill="#32a6ce"/>
      <path id="Path_337" data-name="Path 337" d="M3913.793,1149.132l-3.02,8.013h1.972l1.664-8.013h-.616Z" fill="#1a80ad"/>
      <path id="Path_338" data-name="Path 338" d="M3903.192,1149.133h-3.636l-1.6,8.012h2.158l.554-2.465h1.541a2.93,2.93,0,0,0,3.02-2.4A2.574,2.574,0,0,0,3903.192,1149.133Zm-.061,2.773a1.259,1.259,0,0,1-1.233.925h-.986l.431-1.849h1.048A.7.7,0,0,1,3903.131,1151.906Z" fill="#32a6ce"/>
      <path id="Path_339" data-name="Path 339" d="M3903.192,1149.133h-2.465l-2.835,8.012h2.157l.555-2.465h1.541a2.93,2.93,0,0,0,3.02-2.4A2.5,2.5,0,0,0,3903.192,1149.133Zm-.061,2.773a1.259,1.259,0,0,1-1.233.925h-.986l.431-1.849h1.048A.7.7,0,0,1,3903.131,1151.906Z" fill="#1a80ad"/>
      <path id="Path_340" data-name="Path 340" d="M3888.955,1150.982a9.182,9.182,0,0,0-2.219.369l-.185,1.418a7.362,7.362,0,0,1,1.911-.431c.739,0,1.171.123,1.047.8-2.157,0-3.636.431-3.944,1.91-.432,2.466,2.219,2.527,3.266,1.418l-.123.678h1.972l.863-4.006C3891.852,1151.475,3890.311,1150.92,3888.955,1150.982Zm.185,4.129c-.124.493-.555.678-1.048.74-.432,0-.8-.247-.493-.74.246-.37.8-.37,1.171-.37h.493C3889.2,1154.68,3889.14,1154.926,3889.14,1155.111Z" fill="#21789e"/>
      <path id="Path_341" data-name="Path 341" d="M3886.613,1152.769a7.35,7.35,0,0,1,1.91-.431c.74,0,1.171.123,1.048.8-2.157,0-3.636.431-3.945,1.91-.431,2.466,2.219,2.527,3.267,1.418l-.185.678h1.972l.863-4.006c.37-1.664-1.171-2.1-2.527-2.1m.124,4.068c-.124.493-.555.678-1.048.74-.432,0-.8-.247-.493-.74.246-.37.8-.37,1.171-.37h.493C3889.2,1154.68,3889.14,1154.926,3889.14,1155.111Z" fill="#1a5b80"/>
      <path id="Path_342" data-name="Path 342" d="M3892.345,1150.982h1.972l.308,3.452,1.972-3.452h2.034l-4.684,8.629h-2.219l1.418-2.589Z" fill="#21789e"/>
      <path id="Path_343" data-name="Path 343" d="M3894.317,1151.1l.308,3.39,1.972-3.513h2.034l-4.684,8.629h-2.219l1.418-2.527" fill="#1a5b80"/>
      <path id="Path_344" data-name="Path 344" d="M3884.086,1149.133h-3.7l-1.6,8.012h2.157l.555-2.465h1.541a2.93,2.93,0,0,0,3.02-2.4A2.5,2.5,0,0,0,3884.086,1149.133Zm-.062,2.773a1.258,1.258,0,0,1-1.233.925h-.986l.432-1.849h1.047A.7.7,0,0,1,3884.024,1151.906Z" fill="#21789e"/>
      <path id="Path_345" data-name="Path 345" d="M3884.086,1149.133h-1.665l-3.636,8.012h2.157l.555-2.465h1.541a2.93,2.93,0,0,0,3.02-2.4A2.5,2.5,0,0,0,3884.086,1149.133Zm-.062,2.773a1.258,1.258,0,0,1-1.233.925h-.986l.432-1.849h1.047A.7.7,0,0,1,3884.024,1151.906Z" fill="#1a5b80"/>
      <g id="Group_546" data-name="Group 546">
        <path id="Path_346" data-name="Path 346" d="M3888.585,1153.139c-1.664.123-2.774.616-3.02,1.849-.432,2.465,2.219,2.527,3.266,1.417l-.123.74h1.972l.309-1.479Zm.555,1.972c-.124.493-.555.678-1.048.74-.432,0-.8-.247-.493-.74.246-.37.8-.37,1.171-.37h.493C3889.2,1154.68,3889.14,1154.926,3889.14,1155.111Z" fill="#06435e"/>
        <path id="Path_347" data-name="Path 347" d="M3894.748,1154.371l-.123.185,1.294,1.233,2.712-4.807H3896.6Z" fill="#06435e"/>
        <path id="Path_348" data-name="Path 348" d="M3880.942,1157.145l.555-2.465-2.527,2.465Z" fill="#06435e"/>
      </g>
      <g id="Group_547" data-name="Group 547">
        <path id="Path_349" data-name="Path 349" d="M3900.049,1157.145l.555-2.589v.062l-2.527,2.527Z" fill="#2273aa"/>
        <path id="Path_350" data-name="Path 350" d="M3907.753,1153.139c-1.664.123-2.773.616-3.02,1.849-.431,2.465,2.281,2.527,3.328,1.417l-.184.74h1.972l.308-1.479Zm.555,1.972c-.123.493-.555.678-1.048.74-.431,0-.8-.247-.554-.74.246-.37.8-.37,1.232-.37h.493C3908.37,1154.68,3908.308,1154.926,3908.308,1155.111Z" fill="#2273aa"/>
        <path id="Path_351" data-name="Path 351" d="M3912.191,1153.509l-1.417,3.636h1.972l.555-2.465Z" fill="#2273aa"/>
      </g>
      <g id="Group_548" data-name="Group 548">
        <path id="Path_352" data-name="Path 352" d="M3914.841,1150.427v-.863h-.308v-.123h.8v.123h-.308v.863Z" fill="#32a6ce"/>
        <path id="Path_353" data-name="Path 353" d="M3915.458,1150.427v-.986h.185l.246.678a.216.216,0,0,0,.062.123c0-.062,0-.062.061-.185l.247-.678h.185v.986h-.123v-.863l-.309.863h-.185l-.308-.863v.863h-.061Z" fill="#32a6ce"/>
      </g>
    </g>
  </g>
</svg>
