<svg xmlns="http://www.w3.org/2000/svg" width="12" height="12" viewBox="0 0 12 12">
  <path id="Path_277" data-name="Path 277" d="M4141.375,1479.655a6,6,0,1,0-10.052,4.42l-.006.005.2.164c.012.01.026.019.039.03.1.085.21.167.319.246.036.025.071.051.107.075.117.081.236.157.358.229l.081.046c.133.077.27.148.41.214l.031.014a5.9,5.9,0,0,0,1.451.459l.04.008c.158.027.318.049.479.063l.059.005c.161.013.324.022.489.022s.325-.009.485-.022l.061,0c.16-.015.319-.036.475-.063l.041-.007a5.912,5.912,0,0,0,1.43-.449l.05-.022q.2-.1.4-.2l.1-.055c.118-.069.233-.141.345-.218.041-.027.08-.056.12-.085.1-.069.19-.14.281-.215.021-.016.042-.03.062-.047l.2-.167-.006-.005A5.982,5.982,0,0,0,4141.375,1479.655Zm-11.563,0a5.563,5.563,0,1,1,9.253,4.159,1.653,1.653,0,0,0-.195-.117l-1.847-.924a.483.483,0,0,1-.269-.435v-.645c.043-.053.088-.112.135-.178a4.459,4.459,0,0,0,.57-1.118.79.79,0,0,0,.455-.717v-.774a.8.8,0,0,0-.193-.517v-1.018a1.765,1.765,0,0,0-.411-1.279,3.052,3.052,0,0,0-3.869,0,1.758,1.758,0,0,0-.411,1.28v1.018a.8.8,0,0,0-.194.517v.773a.792.792,0,0,0,.293.616,4.1,4.1,0,0,0,.674,1.394v.631a.486.486,0,0,1-.253.427l-1.725.941a1.515,1.515,0,0,0-.164.1A5.545,5.545,0,0,1,4129.812,1479.655Zm8.827,4.5c-.076.056-.154.109-.233.161l-.109.07c-.1.063-.208.124-.315.181l-.071.036a5.529,5.529,0,0,1-.761.322l-.027.01q-.206.067-.416.12h0c-.141.035-.285.064-.429.088l-.011,0c-.136.022-.272.038-.409.05l-.073.006c-.136.01-.272.016-.409.016s-.276-.006-.413-.017l-.071-.005c-.139-.012-.276-.029-.413-.051l-.018,0a5.508,5.508,0,0,1-.849-.212l-.026-.009c-.137-.046-.272-.1-.406-.155l0,0c-.126-.054-.249-.114-.372-.178l-.047-.024c-.112-.06-.221-.124-.329-.191l-.094-.061c-.1-.065-.2-.133-.292-.2l-.029-.023.021-.011,1.725-.941a.925.925,0,0,0,.481-.811v-.786l-.051-.06a3.668,3.668,0,0,1-.654-1.356l-.02-.087-.075-.048a.361.361,0,0,1-.167-.3v-.773a.357.357,0,0,1,.121-.267l.072-.065v-1.215l0-.029a1.311,1.311,0,0,1,.305-.951,2.654,2.654,0,0,1,3.209,0,1.331,1.331,0,0,1,.308.955l0,1.244.072.065a.356.356,0,0,1,.122.267v.774a.364.364,0,0,1-.258.343l-.108.034-.035.108a4.039,4.039,0,0,1-.545,1.1c-.057.08-.113.152-.16.207l-.054.061v.807a.919.919,0,0,0,.51.826l1.847.923.035.018C4138.687,1484.123,4138.663,1484.139,4138.639,1484.156Z" transform="translate(-4129.375 -1473.655)" fill="gray"/>
</svg>
