<svg xmlns="http://www.w3.org/2000/svg" width="12" height="11.999" viewBox="0 0 12 11.999">
  <g id="Group_438" data-name="Group 438" transform="translate(-4129.375 -1440.307)">
    <g id="Group_437" data-name="Group 437">
      <g id="Group_436" data-name="Group 436">
        <path id="Path_278" data-name="Path 278" d="M4140.638,1441.952l-1.543-.421-.729-.98a.607.607,0,0,0-.827-.14l-2.164,1.472-2.163-1.472a.609.609,0,0,0-.827.141l-.73.979-1.544.42a1,1,0,0,0-.736.966v8.389a1,1,0,0,0,1,1h10a1,1,0,0,0,1-1v-8.389A1,1,0,0,0,4140.638,1441.952Zm-1.135,1.434-.391.131a.2.2,0,0,0-.118.1.2.2,0,0,0-.005.159h0l.352.877-3.236,3.235,2.86-5.718Zm-2.8,2.42-.7-1.875.437-.656a.6.6,0,0,0,.36.122h0a.607.607,0,0,0,.354-.114l1.28-.932Zm1.063-5.065a.2.2,0,0,1,.278.047l0,0,.65.874-1.78,1.3a.207.207,0,0,1-.25-.01l-.144-.12-.016-.017-.007,0-.792-.667Zm-1.638,2.278-.458.687h-.586l-.457-.687.75-.633Zm-1.374.913-.7,1.874-1.728-3.455,1.282.933a.6.6,0,0,0,.712-.008h0Zm-2.045-3.142v0a.206.206,0,0,1,.279-.047l2.058,1.4-.792.668-.007,0-.017.017-.143.12a.206.206,0,0,1-.249.011l-1.78-1.3Zm-.921,1.385,2.86,5.719-3.236-3.236.351-.877a.2.2,0,0,0-.123-.265l-.391-.13Zm3.389,9.731h-4.8a.6.6,0,0,1-.6-.6v-8.389a.6.6,0,0,1,.442-.579l1.2-.328-.629,1.415a.2.2,0,0,0,.12.271l.4.133-.322.8a.2.2,0,0,0,.045.216l4.141,4.141Zm-.882-5.611.821-2.189h.523l.82,2.189-1.082,2.164Zm6.682,5.011a.6.6,0,0,1-.6.6h-4.8v-2.917l4.142-4.141a.2.2,0,0,0,.044-.216l-.321-.8.4-.133a.2.2,0,0,0,.12-.109.2.2,0,0,0,0-.162l-.629-1.415,1.2.328a.6.6,0,0,1,.442.579v8.389Z" fill="gray"/>
      </g>
    </g>
  </g>
</svg>
