<svg xmlns="http://www.w3.org/2000/svg" width="1251.504" height="586.365" viewBox="0 0 1251.504 586.365">
  <g id="Group_670" data-name="Group 670" transform="translate(-1145.867 232.907)">
    <g id="Group_668" data-name="Group 668" transform="translate(1146 -232.907)">
      <g id="Group_668-2" data-name="Group 668" transform="translate(838.251 0)">
        <path id="Path_421" data-name="Path 421" d="M120.6,166.519c22.642,22.566,35.049,13.515,70.925,47.076a5.763,5.763,0,0,1,1.617,5.679c-3.682,13.91,29.308-19.384,15.414-15.565a5.747,5.747,0,0,1-5.581-1.481L0,0C.053,29.772,18.58,64.873,43.636,89.839s53.1,52.907,76.969,76.68m91.213,55.807-85.594-73.385c3.288-3.3,9.286-2.642,13.409,1.466s4.791,10.1,1.511,13.394-9.286,2.642-13.4-1.465-4.8-10.1-1.519-13.394" transform="translate(72.501 6.539) rotate(19)" fill="#fff"/>
        <path id="Path_422" data-name="Path 422" d="M16.188,64.885a6.849,6.849,0,0,1,1.868-6.674c25.262-23.682,38.83-25.99,52.679-33.538a83.911,83.911,0,0,1-11.921-9.962L54.674,0,6.553,46.875A6.875,6.875,0,0,1,0,48.644" transform="matrix(0.899, -0.438, 0.438, 0.899, 87.134, 231.274)" fill="#fff"/>
        <path id="Path_423" data-name="Path 423" d="M68.615,103.868C93.58,78.812,129.83,29.772,129.777,0L0,130.255l5.4,37.059C25.875,146.76,66.081,110.468,86.475,90" transform="matrix(0.899, -0.438, 0.438, 0.899, 89.525, 56.89)" fill="#fff"/>
      </g>
      <path id="Path_502" data-name="Path 502" d="M326.016-171.539,264.469-19.8l-2.895,7.16q-6.551,14.777-21.48,14.777-11.883,0-16.91-6.551t-6.4-23.918L209.777-120.2,177.938-41.59q-19.2,47.227-29.174,64.213A104.032,104.032,0,0,1,122.789,52.1Q99.633,70.078,69.621,70.078q-31.992,0-51.873-20.109T-2.133-2.285q0-42.961,31.383-75.105Q46.008-94.605,71.373-105.27t49.588-10.664q12.8,0,20.262,5.256a16.539,16.539,0,0,1,7.465,14.244q0,9.141-5.941,13.711t-19.652,5.789q-30.316,2.895-48.9,14.016A71.115,71.115,0,0,0,49.74-38.7a59.3,59.3,0,0,0-9.064,31.23q0,17.367,8.912,27.346t24.6,9.979q18.129,0,31.916-15.844T136.043-41.59l60.328-148.535q8.074-19.957,24.527-19.957,19.043,0,20.719,22.7l7.922,101.461,41.285-101.461,2.438-6.094q5.941-14.32,20.871-14.32l6.246-.152h31.23q21.176,0,21.176,14.32,0,10.512-7.465,16.3T344.6-171.539ZM360.9-44.637q0,11.426,17.215,11.426h45.246q19.2,0,19.2,13.559,0,9.293-6.779,14.473T416.813,0H373.7q-24.07,0-36.639-11.883T324.492-46.617q0-29.4,19.881-50.73t47.3-21.328q19.957,0,32.068,10.436t12.111,27.5q0,20.566-16.758,30.469-9.293,5.637-27.727,5.637Zm7.313-27.727h16.758q16.3,0,15.844-7.16Q400.359-87.6,390.3-87.6,376.289-87.6,368.215-72.363ZM559.559-56.672l35.8-46.617,2.895-3.656q8.988-11.73,19.8-11.73a15.131,15.131,0,0,1,11.273,4.494,15.525,15.525,0,0,1,4.418,11.35q0,7.16-9.293,18.891L567.328-12.035Q556.055,2.133,544.02,2.133a21.887,21.887,0,0,1-16.758-7.465,26.034,26.034,0,0,1-6.855-18.281,36.124,36.124,0,0,1,.457-5.637l5.027-27.422L494.813-12.035Q485.063,2.133,473.18,2.133a20.781,20.781,0,0,1-16.758-7.922q-6.551-7.922-6.551-20.414a25.262,25.262,0,0,1,.152-3.047l4.266-63.832q.914-12.34,6.475-18.967t15.158-6.627q14.32,0,14.32,15.691,0,2.59-.3,5.789l-4.266,42.656,33.973-48.6q10.816-15.539,25.137-15.539,8.836,0,14.016,5.027t5.18,13.559q0,3.5-.152,5.18ZM797.52-107.1,751.816,5.18H857.391q21.176,0,21.176,14.625,0,10.359-7.465,16.072T850.383,41.59H737.039l-1.828,4.266q-10.664,23.766-16.758,33.363A94.1,94.1,0,0,1,702.609,97.8q-25.441,23.309-58.5,23.309-26.812,0-44.256-16T582.41,64.441a58.246,58.246,0,0,1,7.465-28.793,54.112,54.112,0,0,1,20.262-20.871q16.605-9.6,45.094-9.6h53.777L754.559-107.1H732.164q-17.062,0-17.062-15.082,0-9.9,7.465-15.615t20.719-5.713h26.051l7.008-17.215q19.957-49.359,60.938-49.359,20.871,0,34.734,13.178t13.863,32.982q0,25.289-20.109,41.057T813.516-107.1Zm14.777-36.41H819.3q11.426,0,19.576-5.713t8.15-13.939q0-12.187-11.426-12.187-10.359,0-19.043,21.328ZM694.078,41.59H654.012q-29.859,0-29.859,21.176A18.743,18.743,0,0,0,630.7,77.314q6.551,5.865,16.453,5.865,13.559,0,26.127-11.2T694.078,41.59ZM931.125-118.676q22.09,0,36.334,14.016T981.7-69.012a76.218,76.218,0,0,1-7.465,32.373q-7.465,16.072-19.348,25.67a46.823,46.823,0,0,1-16.377,8.607Q930.059,0,914.824,0q-24.832,0-33.516-5.941-20.414-14.016-20.414-41.437,0-28.945,20.871-50.121T931.125-118.676Zm-3.656,32.449q-11.273,0-20.566,11.121t-9.293,24.527q0,17.672,19.8,17.672,11.578,0,17.824-7.16A39.356,39.356,0,0,0,945.6-66.879q0-8.684-5.027-14.016A17.183,17.183,0,0,0,927.469-86.227Zm132.844-32.449q22.09,0,36.334,14.016t14.244,35.648a76.218,76.218,0,0,1-7.465,32.373q-7.465,16.072-19.348,25.67A46.823,46.823,0,0,1,1067.7-2.361Q1059.246,0,1044.012,0,1019.18,0,1010.5-5.941q-20.414-14.016-20.414-41.437,0-28.945,20.871-50.121T1060.313-118.676Zm-3.656,32.449q-11.273,0-20.566,11.121T1026.8-50.578q0,17.672,19.8,17.672,11.578,0,17.824-7.16a39.356,39.356,0,0,0,10.359-26.812q0-8.684-5.027-14.016A17.183,17.183,0,0,0,1056.656-86.227Zm155.238,21.785,23.613,37.02q4.418,6.855,4.418,11.273,0,7.008-5.865,12.645a18.561,18.561,0,0,1-13.178,5.637q-6.4,0-11.121-6.855l-1.828-2.742L1172.59-60.328l-17.062,42.2q-8.227,20.262-24.07,20.262A15.927,15.927,0,0,1,1120.412-1.9a12.722,12.722,0,0,1-4.494-9.826,26.87,26.87,0,0,1,2.438-10.207l1.676-4.113,65.2-160.723,1.676-4.113q7.008-17.062,22.395-17.062a15.511,15.511,0,0,1,10.969,4.266,13.482,13.482,0,0,1,4.57,10.207,28.243,28.243,0,0,1-2.437,10.512l-1.676,4.113L1181.883-83.18l34.277-25.441q10.664-7.922,18.281-7.922a14.753,14.753,0,0,1,10.664,4.113,13.607,13.607,0,0,1,4.266,10.207q0,10.207-11.273,18.586l-3.5,2.59Z" transform="translate(2 364.907)" fill="#fff"/>
    </g>
    <g id="Group_669" data-name="Group 669" transform="translate(1368.849 255.088) rotate(2)">
      <path id="Path_457" data-name="Path 457" d="M35.057,30.62c4.444-2.72,6.856-6,6.856-11.842,0-14.6-9.017-19.313-22.988-18.73L1.02.792A1.062,1.062,0,0,0,0,1.852v65.8a1.04,1.04,0,0,0,1.02.971l16.634-.7c12.7-.526,24.259-4.816,24.259-19.419,0-7.244-.13-13.21-6.856-16.108a.98.98,0,0,1,0-1.781M18.544,58.238l-4.573.194a1.039,1.039,0,0,1-1.012-.971V37.767a1.055,1.055,0,0,1,1.012-1.06l4.7-.194c8.256-.34,11.049,1.578,11.049,9.826,0,8.386-2.161,11.526-11.178,11.9m.259-30.37-4.832.2a1.026,1.026,0,0,1-1.012-.971V10.457A1.042,1.042,0,0,1,13.971,9.4l4.322-.186c6.726-.275,11.429,1.174,11.429,8.669S25.91,27.576,18.8,27.868" transform="translate(64.059 24.838)" fill="#d6b048"/>
      <path id="Path_458" data-name="Path 458" d="M50.448,65.574,30.884.593A.957.957,0,0,0,29.864,0L20.6.382a1,1,0,0,0-.882.68L.02,67.679A1.132,1.132,0,0,0,1.04,69.03l10.79-.453a1.159,1.159,0,0,0,1.02-.8l3.424-13.226a.989.989,0,0,1,.89-.8L33.3,53.077a.929.929,0,0,1,1.02.72L37.748,66.74a1.027,1.027,0,0,0,.89.72l10.79-.445a1.1,1.1,0,0,0,1.02-1.441M30.374,44.051l-10.28.429a.964.964,0,0,1-1.02-1.222l5.083-19.774a1.058,1.058,0,0,1,2.032-.089l5.2,19.346a1.122,1.122,0,0,1-1.02,1.311" transform="translate(131.739 21.614)" fill="#d6b048"/>
      <path id="Path_459" data-name="Path 459" d="M32.9,37.269a1.114,1.114,0,0,1,.51-1.425c6.985-3.456,10.288-8.936,10.288-16.812,0-14.61-9.268-19.556-22.859-18.989L1.02.869A1.056,1.056,0,0,0,0,1.929v65.8a1.046,1.046,0,0,0,1.02.971l10.919-.453a1.156,1.156,0,0,0,1.02-1.06V40.256A1.042,1.042,0,0,1,13.971,39.2l6.1-.259a.8.8,0,0,1,.89.478L32.515,66.757a.91.91,0,0,0,.89.591l11.559-.478a1.155,1.155,0,0,0,.89-1.562ZM20.325,30.421l-6.354.267a1.034,1.034,0,0,1-1.012-.979V10.533a1.042,1.042,0,0,1,1.012-1.052l5.715-.243c8.135-.34,11.057,1.951,11.057,10.077,0,7.754-2.412,10.773-10.417,11.106" transform="translate(207.969 20.863)" fill="#d6b048"/>
      <path id="Path_460" data-name="Path 460" d="M35.057,30.62c4.444-2.728,6.864-6.006,6.864-11.842,0-14.61-9.025-19.313-23-18.73L1.02.792A1.051,1.051,0,0,0,0,1.853v65.8a1.046,1.046,0,0,0,1.02.971l16.642-.7c12.7-.526,24.259-4.816,24.259-19.426,0-7.244-.13-13.2-6.864-16.1a.98.98,0,0,1,0-1.781M18.544,58.238l-4.573.186a1.027,1.027,0,0,1-1.012-.971V37.759a1.048,1.048,0,0,1,1.012-1.052l4.7-.194c8.256-.348,11.049,1.57,11.049,9.826,0,8.386-2.161,11.526-11.178,11.9m.259-30.37-4.832.2a1.032,1.032,0,0,1-1.012-.971V10.457A1.055,1.055,0,0,1,13.971,9.4l4.322-.178c6.734-.283,11.429,1.174,11.429,8.669S25.91,27.568,18.8,27.868" transform="translate(281.132 15.805)" fill="#d6b048"/>
      <path id="Path_461" data-name="Path 461" d="M37.6,67.831a1.141,1.141,0,0,0,1.012-1.052V59.154a.943.943,0,0,0-1.012-.971l-23.628.979a1.032,1.032,0,0,1-1.012-.971V40.278a1.049,1.049,0,0,1,1.012-1.06L34.3,38.376a1.149,1.149,0,0,0,1.012-1.06V30.2a.947.947,0,0,0-1.012-.971l-20.325.842a1.027,1.027,0,0,1-1.012-.971v-17.9a1.05,1.05,0,0,1,1.012-1.06L37.6,9.147A1.143,1.143,0,0,0,38.61,8.087V.98A.954.954,0,0,0,37.6,0L1.02,1.522A1.064,1.064,0,0,0,0,2.591V68.382a1.034,1.034,0,0,0,1.02.971Z" transform="translate(354.297 12.023)" fill="#d6b048"/>
      <path id="Path_462" data-name="Path 462" d="M32.9,37.269a1.111,1.111,0,0,1,.51-1.425c6.985-3.464,10.288-8.936,10.288-16.812,0-14.61-9.276-19.556-22.867-18.989L1.02.869A1.051,1.051,0,0,0,0,1.929v65.8a1.046,1.046,0,0,0,1.02.971l10.919-.461a1.149,1.149,0,0,0,1.02-1.052V40.256a1.05,1.05,0,0,1,1.012-1.06l6.1-.251a.809.809,0,0,1,.89.469L32.515,66.749a.906.906,0,0,0,.89.6l11.559-.478a1.166,1.166,0,0,0,.89-1.562Zm-12.57-6.848-6.354.267a1.039,1.039,0,0,1-1.012-.98V10.534a1.055,1.055,0,0,1,1.012-1.06l5.715-.235c8.127-.34,11.057,1.951,11.057,10.078,0,7.746-2.42,10.773-10.417,11.105" transform="translate(420.349 9.932)" fill="#d6b048"/>
      <path id="Path_463" data-name="Path 463" d="M22.1,69.034c13.6-.567,22.357-6.645,22.357-20.867,0-28.33-30.864-11.421-30.864-29.326,0-5.715,2.922-8.888,8.766-9.131,7.115-.3,8.888,3.181,9.139,9.017a.949.949,0,0,0,1.02.971l10.927-.453a1.149,1.149,0,0,0,1.012-1.06C44.074,5.251,36.328-.529,22.867.038,11.178.524.631,6.675.631,19.5c0,15.242,11.178,16.043,23.377,19.346,6.605,1.765,7.487,2.995,7.487,9.98,0,7.245-1.643,10.1-9.4,10.425-7.366.308-9.017-2.671-9.147-8.637a1.026,1.026,0,0,0-1.012-.971L1.012,50.1A1.157,1.157,0,0,0,0,51.162C.381,64.226,9.017,69.577,22.1,69.034" transform="translate(490.971 6.409)" fill="#d6b048"/>
      <path id="Path_464" data-name="Path 464" d="M28.962,39.113v28.2a1.033,1.033,0,0,0,1.012.971L40.9,67.832a1.156,1.156,0,0,0,1.012-1.06V.981A.954.954,0,0,0,40.9,0L29.974.455a1.055,1.055,0,0,0-1.012,1.06V28.574a1.149,1.149,0,0,1-1.02,1.052l-13.971.583a1.032,1.032,0,0,1-1.012-.971V2.187a.956.956,0,0,0-1.02-.979L1.02,1.661A1.062,1.062,0,0,0,0,2.721v65.8a1.04,1.04,0,0,0,1.02.971l10.919-.453a1.156,1.156,0,0,0,1.02-1.06v-28.2a1.042,1.042,0,0,1,1.012-1.052l13.971-.583a.954.954,0,0,1,1.02.971" transform="translate(564.136 3.151)" fill="#d6b048"/>
      <path id="Path_465" data-name="Path 465" d="M43.443,51.449V15.632C43.443,4.194,31.633-.387,21.725.026S0,6.007,0,17.436V53.254C0,64.691,11.818,69.4,21.725,69s21.717-6.111,21.717-17.549m-12.959.542c0,4.954-4.436,7.042-8.758,7.228s-8.766-1.546-8.766-6.5V16.9c0-4.954,4.444-7.042,8.766-7.228s8.758,1.546,8.758,6.5Z" transform="translate(636.533 0.407)" fill="#d6b048"/>
      <path id="Path_466" data-name="Path 466" d="M42.042,19.813c0-15.12-8.127-20.373-22.608-19.766L1.02.816A1.051,1.051,0,0,0,0,1.876V67.667a1.047,1.047,0,0,0,1.02.979l10.919-.461a1.148,1.148,0,0,0,1.02-1.052V42.744a1.044,1.044,0,0,1,1.012-1.06c15.63-.777,28.071-2.7,28.071-21.871M19.184,32.319l-5.213.219a1.033,1.033,0,0,1-1.012-.979V10.48a1.05,1.05,0,0,1,1.012-1.06l5.715-.235C28.7,8.8,29.852,12.439,29.852,20.444c0,8.386-1.4,11.494-10.668,11.875" transform="translate(710.458 0)" fill="#d6b048"/>
      <path id="Path_467" data-name="Path 467" d="M9.349.008A9.836,9.836,0,0,0,0,9.745,8.886,8.886,0,0,0,9.349,18.7,9.828,9.828,0,0,0,18.7,8.968,8.9,8.9,0,0,0,9.349.008" transform="translate(797.497 16.888)" fill="#d6b048"/>
      <path id="Path_468" data-name="Path 468" d="M9.341.008A9.827,9.827,0,0,0,0,9.738,8.89,8.89,0,0,0,9.341,18.7,9.83,9.83,0,0,0,18.69,8.961,8.891,8.891,0,0,0,9.341.008" transform="translate(0 50.091)" fill="#d6b048"/>
    </g>
  </g>
</svg>
