<svg xmlns="http://www.w3.org/2000/svg" width="12" height="12" viewBox="0 0 12 12">
  <g id="Group_435" data-name="Group 435" transform="translate(-4129.375 -1406.958)">
    <g id="Group_434" data-name="Group 434">
      <path id="Path_267" data-name="Path 267" d="M4135.375,1406.958a6,6,0,1,0,6,6A6.007,6.007,0,0,0,4135.375,1406.958Zm0,11.6a5.6,5.6,0,1,1,5.6-5.6A5.606,5.606,0,0,1,4135.375,1418.558Z" fill="gray"/>
      <path id="Path_268" data-name="Path 268" d="M4135.575,1412.162v-2.028a.2.2,0,0,0-.4,0v2.028a.8.8,0,0,0-.571.572h-1.429a.2.2,0,0,0,0,.4h1.429a.8.8,0,1,0,.971-.972Zm-.2,1.172a.4.4,0,1,1,.4-.4A.4.4,0,0,1,4135.375,1413.334Z" fill="gray"/>
      <path id="Path_269" data-name="Path 269" d="M4135.375,1408.934a.2.2,0,0,0,.2-.2v-.2a.2.2,0,0,0-.4,0v.2A.2.2,0,0,0,4135.375,1408.934Z" fill="gray"/>
      <path id="Path_270" data-name="Path 270" d="M4135.375,1416.934a.2.2,0,0,0-.2.2v.2a.2.2,0,0,0,.4,0v-.2A.2.2,0,0,0,4135.375,1416.934Z" fill="gray"/>
      <path id="Path_271" data-name="Path 271" d="M4139.775,1412.734h-.2a.2.2,0,1,0,0,.4h.2a.2.2,0,1,0,0-.4Z" fill="gray"/>
      <path id="Path_272" data-name="Path 272" d="M4131.175,1412.734h-.2a.2.2,0,1,0,0,.4h.2a.2.2,0,1,0,0-.4Z" fill="gray"/>
      <path id="Path_273" data-name="Path 273" d="M4138.345,1409.681l-.141.142a.2.2,0,1,0,.282.282l.142-.141a.2.2,0,0,0-.283-.283Z" fill="gray"/>
      <path id="Path_274" data-name="Path 274" d="M4132.264,1415.762l-.141.142a.2.2,0,0,0,.282.283l.142-.142a.2.2,0,0,0-.283-.283Z" fill="gray"/>
      <path id="Path_275" data-name="Path 275" d="M4138.486,1415.762a.2.2,0,1,0-.282.283l.141.142a.2.2,0,0,0,.283,0,.2.2,0,0,0,0-.283Z" fill="gray"/>
      <path id="Path_276" data-name="Path 276" d="M4132.4,1409.681a.2.2,0,1,0-.282.283l.141.141a.2.2,0,1,0,.283-.282Z" fill="gray"/>
    </g>
  </g>
</svg>
