<svg xmlns="http://www.w3.org/2000/svg" width="20" height="20" viewBox="0 0 20 20">
  <g id="tab1a" transform="translate(-1591.054 -1608.952)">
    <g id="Group_516" data-name="Group 516" transform="translate(1591.054 1608.952)">
      <path id="Path_317" data-name="Path 317" d="M1610.339,1613.952h-3.571v-4.286a.713.713,0,0,0-.714-.714h-14.286a.714.714,0,0,0-.714.714v16.429a2.858,2.858,0,0,0,2.858,2.858H1608.2a2.858,2.858,0,0,0,2.858-2.858v-11.428A.714.714,0,0,0,1610.339,1613.952Zm-13.571-1.429h4.285a.714.714,0,1,1,0,1.429h-4.285a.714.714,0,0,1,0-1.429Zm6.428,13.571h-8.571a.714.714,0,0,1,0-1.429h8.571a.714.714,0,1,1,0,1.429Zm0-2.857h-8.571a.714.714,0,0,1,0-1.429h8.571a.714.714,0,1,1,0,1.429Zm0-2.858h-8.571a.714.714,0,0,1,0-1.429h8.571a.714.714,0,1,1,0,1.429Zm0-2.856h-8.571a.714.714,0,0,1,0-1.429h8.571a.714.714,0,1,1,0,1.429Zm6.429,8.571a1.429,1.429,0,1,1-2.858,0V1615.38h2.858v10.714Z" transform="translate(-1591.054 -1608.952)" fill="#d6b048"/>
    </g>
  </g>
</svg>
