<svg xmlns="http://www.w3.org/2000/svg" width="22" height="22" viewBox="0 0 22 22">
  <g id="tab2a" transform="translate(-1519.703 -1588.877)">
    <g id="Group_514" data-name="Group 514" transform="translate(1519.703 1588.877)">
      <path id="Path_316" data-name="Path 316" d="M1527.7,1599.584a.363.363,0,0,1-.364.365h-1.368a.363.363,0,0,1-.365-.365v-1.369a.363.363,0,0,1,.365-.365h1.368a.363.363,0,0,1,.364.365Zm5.712-1.365a.363.363,0,0,0-.365-.364h-1.368a.363.363,0,0,0-.364.364v1.37a.363.363,0,0,0,.364.365h1.368a.363.363,0,0,0,.365-.365Zm-2.856,2.784a.363.363,0,0,0-.365-.365h-1.366a.363.363,0,0,0-.365.365v1.369a.363.363,0,0,0,.365.365h1.366a.363.363,0,0,0,.365-.365Zm-5.712,0a.363.363,0,0,0-.364-.365h-1.368a.364.364,0,0,0-.365.365v1.369a.364.364,0,0,0,.365.365h1.368a.363.363,0,0,0,.364-.365Zm2.492,2.418h-1.368a.363.363,0,0,0-.365.365v1.369a.363.363,0,0,0,.365.365h1.368a.363.363,0,0,0,.364-.365v-1.369A.363.363,0,0,0,1527.335,1603.422Zm-5.487,5.072h10.375a5.608,5.608,0,0,1-.265-1.657h-10.111a.487.487,0,0,1-.485-.487v-9.787h16.267v4.553a5.576,5.576,0,0,1,1.654.257v-8.238a2.149,2.149,0,0,0-2.145-2.149h-2.4v-1.325a.783.783,0,0,0-.782-.783h-1.22a.783.783,0,0,0-.782.783v1.33h-4.92v-1.33a.783.783,0,0,0-.782-.783h-1.22a.783.783,0,0,0-.782.783v1.33h-2.4a2.149,2.149,0,0,0-2.145,2.148v13.211A2.148,2.148,0,0,0,1521.848,1608.494Zm19.855-1.72a4.1,4.1,0,1,1-4.1-4.1A4.1,4.1,0,0,1,1541.7,1606.774Zm-2.028-1.064a.475.475,0,0,0-.144-.346.49.49,0,0,0-.7,0l-1.781,1.783-.683-.684a.492.492,0,0,0-.841.347.479.479,0,0,0,.144.346l1.03,1.032a.491.491,0,0,0,.7,0l2.128-2.13A.464.464,0,0,0,1539.675,1605.71Z" transform="translate(-1519.703 -1588.877)" fill="#d6b048"/>
    </g>
  </g>
</svg>
