<svg xmlns="http://www.w3.org/2000/svg" width="20.739" height="20.952" viewBox="0 0 20.739 20.952">
  <g id="tab3a" transform="translate(-11.498)">
    <path id="Path_479" data-name="Path 479" d="M170.548,237.984l-.936,5.354a3.1,3.1,0,1,0,1.66,3.3l.53-3.033Zm-2.633,9.88a1.786,1.786,0,1,1,2.066-1.451A1.786,1.786,0,0,1,167.915,247.864Z" transform="translate(-147.113 -228.653)" fill="#d6b048"/>
    <path id="Path_480" data-name="Path 480" d="M280.305,47.031l2.039-11.663h0a6.568,6.568,0,0,1,1.326,5.214l-1.037,5.929" transform="translate(-257.407 -33.868)" fill="#f8e7ba"/>
    <g id="Group_680" data-name="Group 680" transform="translate(11.498)">
      <path id="Path_481" data-name="Path 481" d="M44.734,178.2h-3.2a.368.368,0,0,1,0-.737h3.2a.368.368,0,0,1,0,.737Z" transform="translate(-39.903 -170.21)" fill="#d6b048"/>
      <path id="Path_482" data-name="Path 482" d="M56.767,274.958H53.79a.368.368,0,0,1,0-.737h2.977a.368.368,0,0,1,0,.737Z" transform="translate(-51.644 -263.014)" fill="#d6b048"/>
      <path id="Path_483" data-name="Path 483" d="M50.66,242.7H47.631a.368.368,0,0,1,0-.737H50.66a.368.368,0,0,1,0,.737Z" transform="translate(-45.746 -232.076)" fill="#d6b048"/>
      <path id="Path_484" data-name="Path 484" d="M46.674,210.457H43.555a.368.368,0,1,1,0-.737h3.119a.368.368,0,0,1,0,.737Z" transform="translate(-41.843 -201.149)" fill="#d6b048"/>
      <path id="Path_485" data-name="Path 485" d="M44.761,145.944H41.529a.368.368,0,0,1,0-.737h3.232a.368.368,0,0,1,0,.737Z" transform="translate(-39.903 -139.272)" fill="#d6b048"/>
      <path id="Path_486" data-name="Path 486" d="M46.757,113.7h-3.2a.368.368,0,1,1,0-.737h3.2a.368.368,0,0,1,0,.737Z" transform="translate(-41.843 -108.344)" fill="#d6b048"/>
      <path id="Path_487" data-name="Path 487" d="M50.747,81.443H47.631a.368.368,0,1,1,0-.737h3.116a.368.368,0,1,1,0,.737Z" transform="translate(-45.746 -77.283)" fill="#d6b048"/>
      <path id="Path_488" data-name="Path 488" d="M56.767,49.185H53.79a.368.368,0,0,1,0-.737h2.977a.368.368,0,1,1,0,.737Z" transform="translate(-51.644 -46.393)" fill="#d6b048"/>
      <path id="Path_489" data-name="Path 489" d="M17.668,13.137a.666.666,0,0,0-.662-.534H15.134a1.363,1.363,0,0,1-1.386-.9,20.374,20.374,0,0,1,0-9.489,1.363,1.363,0,0,1,1.386-.9h1.872a.666.666,0,0,0,.662-.534l0-.014A.656.656,0,0,0,17.008,0H13.5a1.512,1.512,0,0,0-1.466,1.086c-1.144,4.065-.149,15.515.18,18.907a1.081,1.081,0,0,0,1.091.959h0a1.081,1.081,0,0,0,1.093-.981l.39-5.168a.978.978,0,0,1,.99-.888h1.232a.656.656,0,0,0,.662-.763Z" transform="translate(-11.498)" fill="#d6b048"/>
    </g>
    <path id="Path_490" data-name="Path 490" d="M187.266,85.682a3.2,3.2,0,0,0-4.04-.755,3.062,3.062,0,0,0-.858.717L174.229,74.59h0a6.033,6.033,0,0,0,1.018,5.04l6.992,9.5a3.225,3.225,0,0,0,4.349.754A2.868,2.868,0,0,0,187.266,85.682Zm-1.438,3.182a1.841,1.841,0,0,1-2.487-.415,1.654,1.654,0,0,1,.435-2.373,1.841,1.841,0,0,1,2.487.415A1.654,1.654,0,0,1,185.827,88.864Z" transform="translate(-155.661 -71.427)" fill="#f8e7ba"/>
    <path id="Path_491" data-name="Path 491" d="M320.669,314.054a3.1,3.1,0,0,0-4.9-.04l-1.05-1.494-1.357,1.9,2.278,3.244a3.128,3.128,0,0,0,4.349.79A3.1,3.1,0,0,0,320.669,314.054Zm-1.438,3.334a1.786,1.786,0,1,1,.435-2.487A1.786,1.786,0,0,1,319.231,317.389Z" transform="translate(-289.064 -300.028)" fill="#d6b048"/>
    <path id="Path_492" data-name="Path 492" d="M298.593,293.387a.368.368,0,1,1,.362-.305A.371.371,0,0,1,298.593,293.387Z" transform="translate(-274.57 -280.69)" fill="#d6b048"/>
  </g>
</svg>
