<svg xmlns="http://www.w3.org/2000/svg" width="18.315" height="20.758" viewBox="0 0 18.315 20.758">
  <g id="tab4" transform="translate(-15.653 -5)">
    <path id="Path_493" data-name="Path 493" d="M25.168,24.7l-3.1-1.878s-.124-3.327.992-4.078,1.178-3.327.992-4.292A2.091,2.091,0,0,0,21.721,13.3c-1.751.269-1.582,1.979-1.553,2.883s-1.271,2.639-2.175,3.152a4.506,4.506,0,0,0-.988-3.4A6.942,6.942,0,0,1,16.3,8.929c1.214-2.077,4.067-4.153,9.433-3.909s7.2,2.59,7.371,3.591-1.017,1.954-1.017,1.954a6.121,6.121,0,0,0-2.739-.806s.169,2.052-2.881,3.176l-.254,2.858,3.728,3.42s1.412-1.148,2.146-1.148,1.5.611,1.5,1.075a1.452,1.452,0,0,1-.537,1.441s-.2-.635-.4-.464a1.106,1.106,0,0,0-.2,1.393A4.065,4.065,0,0,1,32.17,25.2c-.875,1.368-4.01-.171-5.027-.464a4.058,4.058,0,0,0-1.975-.031Z" transform="translate(0 0)" fill="#666"/>
    <path id="Path_494" data-name="Path 494" d="M79.136,35.167a1.752,1.752,0,0,0-.093-.343c-.037-.111-.084-.215-.127-.322-.183-.422-.4-.823-.621-1.223-.2-.353-.405-.7-.618-1.045A1.8,1.8,0,0,0,78.2,32a.668.668,0,0,0,.259-.312.341.341,0,0,0,.024-.109.344.344,0,0,0,0-.1,1.341,1.341,0,0,0-.029-.182c-.047-.231-.106-.452-.164-.675s-.122-.443-.187-.664c-.128-.441-.265-.879-.4-1.316s-.284-.873-.44-1.3c.106.447.224.89.333,1.336L77.927,30c.107.444.229.89.31,1.331a.579.579,0,0,1,.011.282.456.456,0,0,1-.179.2,1.776,1.776,0,0,1-.593.235l-.161.036.087.137c.242.381.476.771.7,1.162s.449.786.647,1.19a3.173,3.173,0,0,1,.235.615,1.047,1.047,0,0,1,.006.318,1,1,0,0,1-.083.309,1.213,1.213,0,0,1-.433.484,4.465,4.465,0,0,1-.589.337,3.533,3.533,0,0,0,.622-.286,1.3,1.3,0,0,0,.5-.486,1.086,1.086,0,0,0,.113-.34,1.182,1.182,0,0,0,.012-.36Z" transform="translate(-45.178 -17.69)" fill="#19282f"/>
    <path id="Path_495" data-name="Path 495" d="M22.934,12.427a7.868,7.868,0,0,0-3.112,2.223,5.131,5.131,0,0,0-1.2,3.575,6.577,6.577,0,0,1,1.742-2.477,7.017,7.017,0,0,0-.154,5.914,4.679,4.679,0,0,1,1.4-4.078l-.119,4.443a5.178,5.178,0,0,1,.117-3.054,3.037,3.037,0,0,1,2.249-1.931,2.17,2.17,0,0,1,2.407,1.483l1.083-2.22.109,1.753a6.048,6.048,0,0,1,2.618-3.306,6.373,6.373,0,0,1,4.055-.785,20.45,20.45,0,0,0-5.012-2.14,10.841,10.841,0,0,0-6.183.6Z" transform="translate(-2.17 -4.861)" fill="#467082" opacity="0.25"/>
    <path id="Path_496" data-name="Path 496" d="M27.051,18.212a10.912,10.912,0,0,1,8-1.819,3.8,3.8,0,0,0-2.639,2.854,1.009,1.009,0,0,1-.181-1.138,8.964,8.964,0,0,1-1.788,1.378,1.7,1.7,0,0,0-1.467-.241,5.034,5.034,0,0,0-1.381.668l-.261.161-.186.114-.927.572a8.674,8.674,0,0,1,.61-1.13,4.4,4.4,0,0,1,3.108-1.883,3.918,3.918,0,0,0-3.5,1.234,2.116,2.116,0,0,1,1.1-1.285" transform="translate(-7.748 -7.719)" fill="#ccc" opacity="0.25"/>
    <path id="Path_497" data-name="Path 497" d="M52.528,56.785l.279,3.1a2.267,2.267,0,0,1-.039.892.772.772,0,0,1-.63.566c-.38.025-.667-.315-.941-.58a3.343,3.343,0,0,0-4.2-.257,2.234,2.234,0,0,1,2.164-1.178,2.818,2.818,0,0,0-3.013.2l.789-1.358-1.185,1.113.414-1.79a2.235,2.235,0,0,0-1.382,1.489,3.609,3.609,0,0,1,.328-3.13,3.017,3.017,0,0,0-.806,2.1,1.922,1.922,0,0,1-.188-1.839c.21-.609.584-1.148.844-1.738a8.527,8.527,0,0,0,.54-3.575l.957,2.39.028-1.261A18.67,18.67,0,0,1,48.128,56.2l.356-1.777.824,1.415.264-.429L50.535,57a3.139,3.139,0,0,1,3.245-2.633c.158.075.141.323.019.448a1.265,1.265,0,0,1-.466.231,1.69,1.69,0,0,0-.736,2.422" transform="translate(-20.771 -36.832)" fill="#467082" opacity="0.25"/>
    <path id="Path_498" data-name="Path 498" d="M50.99,67.189a3.3,3.3,0,0,0,1.075-1.357l-.027,1.554a.259.259,0,0,0,.381.293l1.652-.31-.294,1.109a1.912,1.912,0,0,1,2.231.157,3.738,3.738,0,0,1,.889,1.478,8.957,8.957,0,0,1-.263-2.975.627.627,0,0,1-.353.634.827.827,0,0,1-.757-.09,2.444,2.444,0,0,1-.567-.549l-.244.692-.193-1.137-1.089.4a.877.877,0,0,1-.834.014.866.866,0,0,1-.246-.532l-.285-1.4-.49.562a7.79,7.79,0,0,1-.386-.826,3.375,3.375,0,0,0-.113,1.108l-.088,1.175Z" transform="translate(-25.915 -47.696)" fill="#7a8286"/>
  </g>
</svg>
