<svg xmlns="http://www.w3.org/2000/svg" width="27.291" height="27.291" viewBox="0 0 27.291 27.291">
  <g id="icn-payments" transform="translate(-4113.666 -2495.8)">
    <rect id="Rectangle_151" data-name="Rectangle 151" width="27.291" height="27.291" rx="4.159" transform="translate(4113.666 2495.8)" fill="#d6b048"/>
    <g id="Group_310" data-name="Group 310">
      <g id="Group_309" data-name="Group 309">
        <g id="Layer_1" data-name="Layer 1">
          <g id="Group_308" data-name="Group 308">
            <path id="Path_170" data-name="Path 170" d="M4121.909,2506.612l10.749-2.762-.09-.421a.969.969,0,0,0-1.171-.69l-8.888,2.282a.971.971,0,0,0-.691,1.171Z" fill="#fafbfc"/>
            <path id="Path_171" data-name="Path 171" d="M4133.349,2510.3a.97.97,0,0,0,.69-1.171l-.871-3.423-7.506,1.922h5.074a1.872,1.872,0,0,1,1.862,1.862v1.02Z" fill="#fafbfc"/>
            <path id="Path_172" data-name="Path 172" d="M4131.667,2509.5a.948.948,0,0,0-.961-.961h-9.188a.949.949,0,0,0-.961.961v5.885a.949.949,0,0,0,.961.961h9.188a.949.949,0,0,0,.961-.961Zm-10.059.69a.462.462,0,0,1,.451-.45h5.1a.45.45,0,1,1,0,.9h-5.1A.462.462,0,0,1,4121.608,2510.185Zm5.795,5.285a1.538,1.538,0,0,1-1.531-1.531,1.513,1.513,0,0,1,1.531-1.5,1.539,1.539,0,0,1,1.532,1.532A1.513,1.513,0,0,1,4127.4,2515.47Zm3.3-1.5a1.537,1.537,0,0,1-1.531,1.531,1.018,1.018,0,0,1-.3-.03,2.06,2.06,0,0,0,.6-1.5,2.191,2.191,0,0,0-.6-1.5.923.923,0,0,1,.3-.03A1.519,1.519,0,0,1,4130.706,2513.969Z" fill="#fafbfc"/>
          </g>
        </g>
      </g>
    </g>
  </g>
</svg>
