<svg xmlns="http://www.w3.org/2000/svg" width="27.291" height="27.291" viewBox="0 0 27.291 27.291">
  <g id="icn-languages" transform="translate(-4113.666 -2541.226)">
    <rect id="Rectangle_152" data-name="Rectangle 152" width="27.291" height="27.291" rx="4.159" transform="translate(4113.666 2541.226)" fill="#d6b048"/>
    <g id="Group_338" data-name="Group 338">
      <g id="Group_329" data-name="Group 329">
        <g id="Group_328" data-name="Group 328">
          <path id="Path_178" data-name="Path 178" d="M4124.216,2551.819h-.165l-.308,1.539h.78Z" fill="#fafbfc"/>
        </g>
      </g>
      <g id="Group_331" data-name="Group 331">
        <g id="Group_330" data-name="Group 330">
          <path id="Path_179" data-name="Path 179" d="M4130.441,2554.9a.744.744,0,1,0,1.29,0Z" fill="#fafbfc"/>
        </g>
      </g>
      <g id="Group_333" data-name="Group 333">
        <g id="Group_332" data-name="Group 332">
          <path id="Path_180" data-name="Path 180" d="M4132.638,2550.639h-4.779l1,8a1.194,1.194,0,0,1-.286.876l-1.687,1.928h5.755a1.156,1.156,0,0,0,1.155-1.154v-8.466A1.178,1.178,0,0,0,4132.638,2550.639Zm0,4.258h-.1a4.874,4.874,0,0,1-.927,1.686c.283.258.585.47.886.708a.385.385,0,1,1-.481.6c-.327-.257-.633-.473-.94-.754-.306.281-.587.5-.914.754a.385.385,0,0,1-.481-.6c.3-.238.577-.45.86-.708a4.841,4.841,0,0,1-.9-1.686h-.1a.385.385,0,1,1,0-.769h1.154v-.385a.385.385,0,1,1,.77,0v.385h1.18a.385.385,0,1,1,0,.769Z" fill="#fafbfc"/>
        </g>
      </g>
      <g id="Group_335" data-name="Group 335">
        <g id="Group_334" data-name="Group 334">
          <path id="Path_181" data-name="Path 181" d="M4126.921,2549.315a1.155,1.155,0,0,0-1.145-1.011h-3.964a1.156,1.156,0,0,0-1.155,1.155v8.517a1.155,1.155,0,0,0,1.155,1.154h6.069c.112-.128.206-.208.21-.376C4128.092,2558.712,4126.927,2549.357,4126.921,2549.315Zm-1.545,6.344a.384.384,0,0,1-.452-.3l-.246-1.23h-1.088l-.246,1.23a.385.385,0,0,1-.755-.151l.77-3.849a.386.386,0,0,1,.377-.309h.795a.386.386,0,0,1,.378.309l.769,3.849A.383.383,0,0,1,4125.376,2555.659Z" fill="#fafbfc"/>
        </g>
      </g>
      <g id="Group_337" data-name="Group 337">
        <g id="Group_336" data-name="Group 336">
          <path id="Path_182" data-name="Path 182" d="M4125.154,2559.9l.066.528a1.163,1.163,0,0,0,.665.894c.73-.8.288-.317,1.292-1.422Z" fill="#fafbfc"/>
        </g>
      </g>
    </g>
  </g>
</svg>
