<svg xmlns="http://www.w3.org/2000/svg" width="27.291" height="27.291" viewBox="0 0 27.291 27.291">
  <g id="icn-notifications" transform="translate(-4113.666 -2450.374)">
    <rect id="Rectangle_150" data-name="Rectangle 150" width="27.291" height="27.291" rx="4.159" transform="translate(4113.666 2450.374)" fill="#d6b048"/>
    <g id="Group_327" data-name="Group 327">
      <g id="Group_326" data-name="Group 326">
        <g id="Group_323" data-name="Group 323">
          <g id="Group_322" data-name="Group 322">
            <path id="Path_176" data-name="Path 176" d="M4133.154,2468.87l-1.01-1.684a5,5,0,0,1-.713-2.574v-1.476a4.124,4.124,0,0,0-2.943-3.945v-1.057a1.177,1.177,0,1,0-2.354,0v1.057a4.125,4.125,0,0,0-2.942,3.945v1.476a5.007,5.007,0,0,1-.713,2.573l-1.01,1.685a.294.294,0,0,0,.252.446H4132.9a.294.294,0,0,0,.252-.446Z" fill="#fafbfc"/>
          </g>
        </g>
        <g id="Group_325" data-name="Group 325">
          <g id="Group_324" data-name="Group 324">
            <path id="Path_177" data-name="Path 177" d="M4125.458,2469.9a2.047,2.047,0,0,0,3.706,0Z" fill="#fafbfc"/>
          </g>
        </g>
      </g>
    </g>
  </g>
</svg>
