<svg xmlns="http://www.w3.org/2000/svg" width="27.291" height="27.291" viewBox="0 0 27.291 27.291">
  <g id="icn-security" transform="translate(-4113.666 -2404.948)">
    <rect id="Rectangle_149" data-name="Rectangle 149" width="27.291" height="27.291" rx="4.159" transform="translate(4113.666 2404.948)" fill="#d6b048"/>
    <g id="surface1">
      <g id="Group_306" data-name="Group 306">
        <path id="Path_168" data-name="Path 168" d="M4127.311,2416.56a2.683,2.683,0,1,0,2.684,2.684A2.687,2.687,0,0,0,4127.311,2416.56Zm1.594,2.178-1.923,1.923a.413.413,0,0,1-.584,0l-.735-.735a.413.413,0,0,1,.584-.584l.443.442,1.63-1.63a.413.413,0,0,1,.585.584Z" fill="#fafbfc"/>
        <path id="Path_169" data-name="Path 169" d="M4133.295,2416.022v-.011c-.006-.135-.011-.278-.013-.438a1.493,1.493,0,0,0-1.406-1.462,5.8,5.8,0,0,1-3.943-1.662l-.009-.009a.9.9,0,0,0-1.225,0l-.009.009a5.793,5.793,0,0,1-3.943,1.662,1.494,1.494,0,0,0-1.406,1.463c0,.158-.006.3-.012.437v.026a15.24,15.24,0,0,0,.617,5.572,7.1,7.1,0,0,0,1.7,2.651,8.908,8.908,0,0,0,3.33,1.97,1.21,1.21,0,0,0,.136.037,1.035,1.035,0,0,0,.2.019,1.024,1.024,0,0,0,.2-.019,1.036,1.036,0,0,0,.137-.038,8.9,8.9,0,0,0,3.327-1.971,7.1,7.1,0,0,0,1.7-2.651A15.264,15.264,0,0,0,4133.295,2416.022Zm-5.984,6.732a3.51,3.51,0,1,1,3.511-3.51A3.515,3.515,0,0,1,4127.311,2422.754Z" fill="#fafbfc"/>
      </g>
    </g>
  </g>
</svg>
