<svg xmlns="http://www.w3.org/2000/svg" width="27.291" height="27.291" viewBox="0 0 27.291 27.291">
  <g id="icn-privacy" transform="translate(-4113.666 -2359.521)">
    <rect id="Rectangle_148" data-name="Rectangle 148" width="27.291" height="27.291" rx="4.159" transform="translate(4113.666 2359.521)" fill="#d6b048"/>
    <g id="Group_305" data-name="Group 305">
      <g id="Group_304" data-name="Group 304">
        <path id="Path_167" data-name="Path 167" d="M4131.969,2371.809h-.275v-1.288a4.39,4.39,0,0,0-4.253-4.415h-.259a4.39,4.39,0,0,0-4.253,4.415v1.288h-.275a.893.893,0,0,0-.77.978v6.46a.9.9,0,0,0,.77.982h9.315a.9.9,0,0,0,.77-.982v-6.46A.893.893,0,0,0,4131.969,2371.809Zm-3.785,4.2v1.952a.417.417,0,0,1-.411.413h-.923a.417.417,0,0,1-.411-.413v-1.952a1.182,1.182,0,0,1,.743-2.011c.065,0,.194,0,.259,0a1.182,1.182,0,0,1,.743,2.011Zm1.7-4.2h-5.137v-1.288a2.568,2.568,0,1,1,5.137,0v1.288Z" fill="#fafbfc"/>
      </g>
    </g>
  </g>
</svg>
