<svg xmlns="http://www.w3.org/2000/svg" width="27.291" height="27.291" viewBox="0 0 27.291 27.291">
  <g id="icn-username" transform="translate(-4113.666 -2268.669)">
    <rect id="Rectangle_146" data-name="Rectangle 146" width="27.291" height="27.291" rx="4.159" transform="translate(4113.666 2268.669)" fill="#d6b048"/>
    <g id="Group_303" data-name="Group 303">
      <g id="Group_302" data-name="Group 302">
        <path id="Path_163" data-name="Path 163" d="M4127.311,2282.156c1.614,0,2.921-1.589,2.921-3.548s-.429-3.548-2.921-3.548-2.921,1.588-2.921,3.548S4125.7,2282.156,4127.311,2282.156Z" fill="#fafbfc"/>
        <path id="Path_164" data-name="Path 164" d="M4121.794,2287.573c0-.12,0-.034,0,0Z" fill="#fafbfc"/>
        <path id="Path_165" data-name="Path 165" d="M4132.828,2287.666c0-.033,0-.227,0,0Z" fill="#fafbfc"/>
        <path id="Path_166" data-name="Path 166" d="M4132.822,2287.43c-.054-3.414-.5-4.386-3.911-5a2.4,2.4,0,0,1-3.2,0c-3.374.609-3.847,1.567-3.909,4.891-.005.271-.008.285-.009.254,0,.059,0,.168,0,.358,0,0,.812,1.638,5.516,1.638s5.517-1.638,5.517-1.638v-.265C4132.827,2287.686,4132.826,2287.648,4132.822,2287.43Z" fill="#fafbfc"/>
      </g>
    </g>
  </g>
</svg>
