<svg xmlns="http://www.w3.org/2000/svg" width="27.291" height="27.291" viewBox="0 0 27.291 27.291">
  <g id="icn-logout" transform="translate(-4113.666 -2586.52)">
    <rect id="Rectangle_154" data-name="Rectangle 154" width="27.291" height="27.291" rx="4.159" transform="translate(4113.666 2586.52)" fill="#db3a3a"/>
    <g id="Group_321" data-name="Group 321">
      <g id="Group_320" data-name="Group 320">
        <g id="Group_319" data-name="Group 319">
          <g id="Group_318" data-name="Group 318">
            <path id="Path_174" data-name="Path 174" d="M4133.9,2599.4a.567.567,0,0,0-.12-.18l-1.657-1.657a.553.553,0,0,0-.781.782l.714.714h-3.086a.552.552,0,0,0,0,1.1h3.086l-.714.714a.553.553,0,0,0,.391.943.545.545,0,0,0,.39-.162l1.657-1.656a.556.556,0,0,0,.12-.6Z" fill="#fafbfc"/>
            <path id="Path_175" data-name="Path 175" d="M4130.074,2601.27a.552.552,0,0,0-.552.552v2.763h-2.21v-8.84a.553.553,0,0,0-.394-.529l-1.919-.576h4.523v2.763a.552.552,0,0,0,1.1,0v-3.315a.552.552,0,0,0-.553-.552h-8.839a.507.507,0,0,0-.057.01.62.62,0,0,0-.075.013.552.552,0,0,0-.159.069.306.306,0,0,0-.039.017s-.006.009-.011.013a.552.552,0,0,0-.147.174c-.007.015-.009.031-.015.047a.507.507,0,0,0-.044.129c0,.016,0,.032,0,.048s-.008.021-.008.032v11.049a.553.553,0,0,0,.444.542l5.525,1.1a.562.562,0,0,0,.108.011.554.554,0,0,0,.553-.553v-.552h2.762a.553.553,0,0,0,.553-.553v-3.315A.552.552,0,0,0,4130.074,2601.27Z" fill="#fafbfc"/>
          </g>
        </g>
      </g>
    </g>
  </g>
</svg>
