<svg xmlns="http://www.w3.org/2000/svg" width="27.291" height="27.291" viewBox="0 0 27.291 27.291">
  <g id="icn-chat" transform="translate(-4113.666 -2314.095)">
    <rect id="Rectangle_147" data-name="Rectangle 147" width="27.291" height="27.291" rx="4.159" transform="translate(4113.666 2314.095)" fill="#d6b048"/>
    <g id="Group_343" data-name="Group 343">
      <g id="Group_340" data-name="Group 340">
        <g id="Group_339" data-name="Group 339">
          <path id="Path_183" data-name="Path 183" d="M4130.2,2320.991h-8.2a1.445,1.445,0,0,0-1.446,1.446v6.75a1.446,1.446,0,0,0,1.446,1.447h.253l-.249,1.864a.482.482,0,0,0,.82.405l1.587-1.588v-5.021a2.413,2.413,0,0,1,2.41-2.41h4.822v-1.447A1.446,1.446,0,0,0,4130.2,2320.991Z" fill="#fafbfc"/>
        </g>
      </g>
      <g id="Group_342" data-name="Group 342">
        <g id="Group_341" data-name="Group 341">
          <path id="Path_184" data-name="Path 184" d="M4132.615,2324.848h-5.786a1.447,1.447,0,0,0-1.446,1.446v4.822a1.446,1.446,0,0,0,1.446,1.446h1.474l3.1,1.86a.484.484,0,0,0,.662-.166.491.491,0,0,0,.062-.327l-.227-1.367h.716a1.445,1.445,0,0,0,1.446-1.446v-4.822A1.446,1.446,0,0,0,4132.615,2324.848Z" fill="#fafbfc"/>
        </g>
      </g>
    </g>
  </g>
</svg>
